<svg width="36" height="36" viewBox="0 0 36 36" fill="none" xmlns="http://www.w3.org/2000/svg">
<circle cx="18" cy="18" r="18" fill="#EDEDED" fill-opacity="0.25"/>
<g clip-path="url(#clip0_4046:2815)">
<path d="M22.7598 13.0785L21.7397 24.7027H14.2612L13.2413 13.0785L11.949 13.1918L12.9875 25.0268C13.0422 25.5723 13.5155 26 14.0653 26H21.9356C22.4853 26 22.9588 25.5726 23.0143 25.019L24.0522 13.1918L22.7598 13.0785Z" fill="#6C5CE7"/>
<path d="M20.3769 10H15.6202C15.024 10 14.5391 10.485 14.5391 11.0811V13.1352H15.8363V11.2973H20.1607V13.1351H21.4579V11.0811C21.458 10.485 20.973 10 20.3769 10Z" fill="#6C5CE7"/>
<path d="M24.9201 12.4866H11.0822C10.724 12.4866 10.4336 12.7769 10.4336 13.1352C10.4336 13.4935 10.724 13.7839 11.0822 13.7839H24.9201C25.2784 13.7839 25.5687 13.4935 25.5687 13.1352C25.5687 12.7769 25.2783 12.4866 24.9201 12.4866Z" fill="#6C5CE7"/>
</g>
<defs>
<clipPath id="clip0_4046:2815">
<rect width="16" height="16" fill="white" transform="translate(10 10)"/>
</clipPath>
</defs>
</svg>
