<svg width="17" height="16" viewBox="0 0 17 16" fill="none" xmlns="http://www.w3.org/2000/svg">
<g clip-path="url(#clip0)">
<path d="M13.7268 3.07849L12.7067 14.7027H5.2282L4.20833 3.07849L2.91602 3.19177L3.95452 15.0268C4.00917 15.5723 4.48248 16 5.03233 16H12.9026C13.4522 16 13.9257 15.5726 13.9813 15.019L15.0191 3.19177L13.7268 3.07849Z" fill="black"/>
<path d="M11.3457 0H6.58891C5.99278 0 5.50781 0.484969 5.50781 1.08109V3.13516H6.80509V1.29728H11.1294V3.13512H12.4267V1.08106C12.4267 0.484969 11.9418 0 11.3457 0Z" fill="black"/>
<path d="M15.8849 2.48651H2.04709C1.68881 2.48651 1.39844 2.77689 1.39844 3.13517C1.39844 3.49345 1.68881 3.78382 2.04709 3.78382H15.8849C16.2432 3.78382 16.5336 3.49345 16.5336 3.13517C16.5336 2.77689 16.2432 2.48651 15.8849 2.48651Z" fill="black"/>
</g>
<defs>
<clipPath id="clip0">
<rect width="16" height="16" fill="white" transform="translate(0.966797)"/>
</clipPath>
</defs>
</svg>
